<?xml version="1.0" encoding="utf-8"?>
<!-- Generator: Adobe Illustrator 17.0.0, SVG Export Plug-In . SVG Version: 6.00 Build 0)  -->
<!DOCTYPE svg PUBLIC "-//W3C//DTD SVG 1.1//EN" "http://www.w3.org/Graphics/SVG/1.1/DTD/svg11.dtd">
<svg version="1.1" id="Layer_1" xmlns="http://www.w3.org/2000/svg" xmlns:xlink="http://www.w3.org/1999/xlink" x="0px" y="0px"
	 width="1000px" height="400px" viewBox="0 0 1000 400" enable-background="new 0 0 1000 400" xml:space="preserve">
<g>
	<g>
		<path fill="#102D5E" d="M0,230.455h31.79c19.275,0,32.542,9.761,32.542,26.436v0.254c0,18.169-15.891,27.572-34.165,27.572H6.512
			v32.261H0V230.455z M30.544,278.789c16.268,0,27.28-8.412,27.28-21.265v-0.264c0-13.716-10.762-20.884-26.536-20.884H6.512v42.4
			h24.032C30.544,278.776,30.544,278.789,30.544,278.789z"/>
		<path fill="#102D5E" d="M83.618,230.455h36.802c10.759,0,19.396,3.324,24.655,8.521c4.131,4.077,6.629,9.888,6.629,16.06v0.254
			c0,14.469-10.889,22.755-25.653,24.718l28.91,36.967h-8.26l-27.91-35.851H90.135v35.851h-6.512v-86.519h-0.005
			C83.618,230.456,83.618,230.455,83.618,230.455z M119.665,275.313c14.639,0,25.527-7.29,25.527-19.771v-0.254
			c0-11.627-9.26-18.911-25.156-18.911H90.124v38.936H119.665z"/>
		<path fill="#102D5E" d="M207.406,229.826h6.255l40.807,87.146h-7.14l-11.141-24.232h-51.684l-11.14,24.232h-6.766L207.406,229.826
			z M233.441,286.938l-23.027-50.063l-23.149,50.063H233.441z"/>
		<path fill="#102D5E" d="M264.115,273.955v-0.243c0-23.364,17.141-44.746,43.302-44.746c14.27,0,23.282,4.198,32.041,11.362
			l-4.251,4.824c-6.886-5.929-14.891-10.382-28.156-10.382c-21.277,0-36.173,17.798-36.173,38.687v0.255
			c0,22.362,14.142,39.057,37.542,39.057c11.146,0,21.527-4.58,27.915-9.893v-24.833h-29.289v-5.938h35.539v33.368
			c-7.882,6.924-20.148,12.979-34.409,12.979C280.506,318.451,264.115,298.306,264.115,273.955z"/>
		<path fill="#102D5E" d="M364.751,280.996v-50.541h6.512v49.932c0,20.391,11.135,32.138,29.658,32.138
			c17.772,0,29.165-10.635,29.165-31.528v-50.541h6.512v49.799c0,24.844-14.646,38.076-35.928,38.076
			C379.648,318.33,364.751,305.229,364.751,280.996z"/>
		<path fill="#102D5E" d="M461.258,230.455h62.334v5.923H467.77v33.999h50.188v5.938H467.77v34.727h56.447v5.938h-62.959V230.455
			L461.258,230.455z"/>
		<path fill="#102D5E" d="M582.669,230.455h36.178c9.888,0,17.886,2.836,22.783,7.65c3.628,3.584,5.62,8.164,5.62,13.6v0.244
			c0,11.748-7.755,17.681-14.894,20.521c10.519,2.72,19.78,8.65,19.78,20.639v0.254c0,14.463-12.516,23.608-31.416,23.608h-38.053
			L582.669,230.455L582.669,230.455z M618.09,270.377c13.135,0,22.528-6.309,22.528-17.803v-0.244
			c0-9.518-7.891-15.952-21.903-15.952h-29.536v33.999H618.09z M620.971,311.039c15.023,0,24.536-6.801,24.536-17.67v-0.25
			c0-10.635-9.391-16.806-26.66-16.806h-29.668v34.726H620.971z"/>
		<path fill="#102D5E" d="M669.169,273.955v-0.243c0-23.613,17.646-44.746,44.18-44.746c26.521,0,43.93,20.884,43.93,44.491v0.255
			c0,23.603-17.65,44.739-44.184,44.739C686.571,318.451,669.169,297.563,669.169,273.955z M750.521,273.955v-0.243
			c0-21.382-15.775-38.937-37.431-38.937c-21.646,0-37.158,17.301-37.158,38.691v0.244c0,21.396,15.776,38.93,37.417,38.93
			C735.003,312.642,750.521,295.332,750.521,273.955z"/>
		<path fill="#102D5E" d="M807.723,229.826h6.26l40.801,87.146h-7.134l-11.143-24.232h-51.68l-11.139,24.232h-6.768L807.723,229.826
			z M833.763,286.938l-23.027-50.063l-23.153,50.063H833.763z"/>
		<path fill="#102D5E" d="M886.336,236.378h-30.542v-5.923h67.588v5.923h-30.537v80.595h-6.509L886.336,236.378L886.336,236.378z"/>
		<path fill="#102D5E" d="M935.657,304.365l4.254-4.824c9.639,8.779,18.524,12.856,31.421,12.856
			c13.136,0,22.148-7.29,22.148-17.183v-0.244c0-9.15-4.873-14.463-24.781-18.417c-21.021-4.204-29.535-11.25-29.535-24.354v-0.25
			c0-12.852,11.885-22.744,28.153-22.744c12.778,0,21.147,3.463,30.044,10.509l-4.135,5.063c-8.262-7.047-16.52-9.767-26.153-9.767
			c-12.891,0-21.4,7.295-21.4,16.323v0.254c0,9.141,4.761,14.707,25.537,18.9c20.27,4.077,28.79,11.245,28.79,23.861v0.244
			c0,13.97-12.141,23.607-29.039,23.607C956.932,318.203,946.17,313.633,935.657,304.365z"/>
	</g>
	<g>
		<path fill="#102D5E" d="M384.907,382.871l1.393-1.588c3.159,2.881,6.066,4.225,10.288,4.225c4.305,0,7.259-2.396,7.259-5.635
			v-0.084c0-2.998-1.599-4.735-8.115-6.034c-6.888-1.372-9.673-3.683-9.673-7.974v-0.084c0-4.203,3.895-7.445,9.219-7.445
			c4.183,0,6.933,1.133,9.837,3.447l-1.351,1.649c-2.702-2.306-5.408-3.188-8.572-3.188c-4.221,0-7.004,2.379-7.004,5.342v0.078
			c0,2.988,1.559,4.814,8.361,6.191c6.639,1.344,9.427,3.688,9.427,7.817v0.098c0,4.57-3.975,7.726-9.517,7.726
			C391.866,387.402,388.343,385.908,384.907,382.871z"/>
		<path fill="#102D5E" d="M413.26,358.652h2.129v28.344h-2.129V358.652z"/>
		<path fill="#102D5E" d="M424.202,358.652h2.011l19.8,24.658v-24.658h2.048v28.344h-1.597l-20.207-25.185v25.185h-2.054
			L424.202,358.652L424.202,358.652z"/>
		<path fill="#102D5E" d="M455.309,372.9v-0.078c0-8.008,6.063-14.647,14.346-14.647c5.122,0,8.193,1.864,11.146,4.536l-1.511,1.537
			c-2.504-2.393-5.377-4.185-9.677-4.185c-6.89,0-12.09,5.566-12.09,12.681v0.078c0,7.164,5.288,12.76,12.132,12.76
			c4.139,0,6.971-1.577,9.878-4.404l1.437,1.367c-3.032,2.969-6.313,4.955-11.399,4.955
			C461.371,387.49,455.309,381.039,455.309,372.9z"/>
		<path fill="#102D5E" d="M486.817,358.652h20.407v1.943h-18.286v11.133h16.438v1.934h-16.438v11.383h18.491v1.951h-20.612V358.652
			L486.817,358.652z"/>
		<path fill="#102D5E" d="M529.637,360.64l-5.532,1.87l-0.576-1.67l6.559-2.378h1.646v28.534h-2.095L529.637,360.64L529.637,360.64z
			"/>
		<path fill="#102D5E" d="M539.393,383.965l1.343-1.611c2.417,2.135,4.723,3.229,7.35,3.229c5.775,0,9.834-6.123,9.507-14.619
			c-1.642,2.915-4.435,5.469-8.945,5.469c-5.775,0-9.912-3.804-9.912-8.677v-0.078c0-5.22,4.098-9.507,10.094-9.507
			c3.065,0,5.562,1.167,7.284,2.876c2.212,2.183,3.604,5.381,3.604,11.05v0.083c0,8.911-5,15.313-11.67,15.313
			C544.471,387.49,541.771,385.941,539.393,383.965z M556.731,367.363v-0.082c0-4.004-3.413-7.218-8.164-7.218
			c-4.712,0-7.611,3.618-7.611,7.539v0.078c0,3.97,3.231,6.885,7.772,6.885C553.611,374.565,556.731,370.923,556.731,367.363z"/>
		<path fill="#102D5E" d="M565.696,383.965l1.362-1.611c2.407,2.135,4.712,3.229,7.329,3.229c5.781,0,9.834-6.123,9.508-14.619
			c-1.637,2.915-4.424,5.469-8.932,5.469c-5.786,0-9.917-3.804-9.917-8.677v-0.078c0-5.22,4.092-9.507,10.083-9.507
			c3.062,0,5.563,1.167,7.295,2.876c2.213,2.183,3.6,5.381,3.6,11.05v0.083c0,8.911-5,15.313-11.681,15.313
			C570.774,387.49,568.069,385.941,565.696,383.965z M583.04,367.363v-0.082c0-4.004-3.408-7.218-8.159-7.218
			c-4.712,0-7.622,3.618-7.622,7.539v0.078c0,3.97,3.237,6.885,7.783,6.885C579.915,374.565,583.04,370.923,583.04,367.363z"/>
		<path fill="#102D5E" d="M591.308,372.9v-0.078c0-7.813,4.633-14.647,11.924-14.647c7.295,0,11.855,6.758,11.855,14.58v0.073
			c0,7.816-4.629,14.672-11.935,14.672C595.862,387.49,591.308,380.723,591.308,372.9z M612.865,372.9v-0.078
			c0-6.597-3.765-12.759-9.712-12.759c-5.942,0-9.625,6.079-9.625,12.681v0.078c0,6.563,3.771,12.76,9.718,12.76
			C609.188,385.58,612.865,379.457,612.865,372.9z"/>
	</g>
	<g>
		<g>
			<path fill="#102D5E" d="M498.268,173.53l-73.486-32.991V12.5h150.422v128.1L498.268,173.53z M434.162,134.576l64.192,28.813
				l67.474-28.877V21.763H434.162V134.576z"/>
		</g>
		<g>
			<g>
				<g>
					<g>
						<path fill="#102D5E" d="M514.915,104.409l5.536,5.007c-2.632,3.016-8.729,8.823-17.344,10.117V83.92h15.962v-7.903h-15.962
							V65.815c5.396-1.797,9.302-6.851,9.302-12.782c0-7.431-6.13-13.482-13.658-13.482c-7.527,0-13.655,6.052-13.655,13.482
							c0,6.19,4.236,11.421,10.005,12.999v9.979h-16.54v7.903h16.54v35.42c-8.615-1.772-13.77-8.162-15.461-10.594l5.396-4.655
							l-17.479-3.423l0.578,18.037l5.452-4.721c3.282,4.399,11.887,13.709,26.073,13.709c13.436,0,22.697-8.426,26.696-12.938
							l5.143,4.649l0.933-18.158L514.915,104.409z M498.883,58.601c-3.118,0-5.657-2.512-5.657-5.588
							c0-3.072,2.539-5.587,5.657-5.587c3.12,0,5.648,2.515,5.648,5.587C504.532,56.089,502.003,58.601,498.883,58.601z"/>
					</g>
				</g>
			</g>
		</g>
	</g>
</g>
</svg>
